<svg xmlns="http://www.w3.org/2000/svg" viewBox="0 0 54.24 54.24"><defs><style>.cls-1{isolation:isolate;}.cls-2{fill:#fff;}.cls-3,.cls-4{fill:#93c3fd;}.cls-3{opacity:0.3;mix-blend-mode:multiply;}.cls-5{opacity:0.72;}.cls-6{fill:#fa7764;}.cls-7{fill:#181818;}.cls-8,.cls-9{fill:none;stroke:#ff3e14;stroke-miterlimit:10;}.cls-8{stroke-width:4.36px;}.cls-9{stroke-width:3.47px;}</style></defs><title>Animal</title><g class="cls-1"><g id="Layer_2" data-name="Layer 2"><g id="OBJECTS"><path class="cls-2" d="M674.8,453.37a15.83,15.83,0,0,0,10.94-7.64h0c.16-.32.32-.66.46-1a10,10,0,0,0,.55-1.78,10.49,10.49,0,0,0,.21-1.74,5.43,5.43,0,0,0,0-.57V440a21.67,21.67,0,0,0-.44-4.08c-.53-2.48-1.35-3.49-1.35-4,0-.81.72-11.11-1.65-11.36s-8.66,5.09-8.66,5.09a25.23,25.23,0,0,0-2.87-.61c-1-.15-2.1-.25-3.14-.31-.66,0-1.32-.06-2-.06-1.58,0-3.08.08-4.38.2l-1.31.14c-1.3.15-2.31.33-2.9.44l-.55.11c-.89-.82-4.49-4.2-6.67-4.88a2.36,2.36,0,0,0-.54-.11.88.88,0,0,0-.94.42c-1.17,2-.36,8.7-.36,9.59s-1.06,2.21-1.69,5.89a.6.6,0,0,1,0,.12c-.18,1.09-.37,2.28-.47,3.52,0,.43-.07.86-.08,1.29a15.34,15.34,0,0,0,.25,3.31,9.67,9.67,0,0,0,1.92,4.24,9.92,9.92,0,0,0,6.3,4A52,52,0,0,0,674.8,453.37Z" transform="translate(-639.22 -410.28)"/><path class="cls-3" d="M656,426.06a4.27,4.27,0,0,0,1.76,1.43,4.36,4.36,0,0,0,1.87,0c3.76-.52,7.87-.91,11.09,1.09,3.86,2.38,5.16,7.33,5.55,11.85a17.19,17.19,0,0,1-.64,7.52c-.64,1.71-1.2,4.74-2.75,5.65.6-.08,1.21-.16,1.8-.26a15.5,15.5,0,0,0,10.94-7.64h0a10.39,10.39,0,0,0,.47-1,10.93,10.93,0,0,0,.54-1.78,10.47,10.47,0,0,0,.22-1.74c0-.19,0-.38,0-.57s0-.4,0-.59a21.78,21.78,0,0,0-.43-4.08c-.54-2.48-1.36-3.49-1.36-4,0-.81.72-11.11-1.65-11.36s-8.65,5.09-8.65,5.09a25.87,25.87,0,0,0-2.88-.61c-1-.15-2.1-.25-3.13-.31-.67,0-1.33-.06-2-.06-1.58,0-3.09.08-4.39.2l-1.31.14c-1.3.15-2.31.33-2.9.44l-.55.11c-.89-.82-4.49-4.2-6.66-4.88C652.9,422.08,654.68,424.51,656,426.06Z" transform="translate(-639.22 -410.28)"/><path class="cls-4" d="M666.83,424.68c-.24,1.93-.61,5-.75,7.08-.16,2.32-.78,3.94-2,0a42.52,42.52,0,0,1-1.61-6.88C663.74,424.76,665.24,424.68,666.83,424.68Z" transform="translate(-639.22 -410.28)"/><path class="cls-4" d="M661.14,425c-.14,1.36-.27,2.78-.34,3.91-.13,2.19-.65,3.72-1.71,0-.34-1.18-.63-2.38-.85-3.47C658.82,425.35,659.83,425.18,661.14,425Z" transform="translate(-639.22 -410.28)"/><path class="cls-4" d="M671.93,425.05c-.51,1.48-1.06,3.15-1.43,4.42-.62,2.11-1.47,3.48-1.67-.38-.08-1.52-.08-3,0-4.35C669.83,424.8,670.89,424.9,671.93,425.05Z" transform="translate(-639.22 -410.28)"/><path class="cls-4" d="M647,440.12c.1-1.23.29-2.43.48-3.53a.36.36,0,0,1,0-.11,20.81,20.81,0,0,0,3.56,2.5C652.51,439.67,650.54,440.55,647,440.12Z" transform="translate(-639.22 -410.28)"/><path class="cls-4" d="M647.17,444.72a14.74,14.74,0,0,1-.26-3.31,18.16,18.16,0,0,0,3.46,1.34C651.88,443.07,650.39,444.27,647.17,444.72Z" transform="translate(-639.22 -410.28)"/><path class="cls-4" d="M686.9,440c-4.16.6-6.57-.34-4.93-1.06a25.23,25.23,0,0,0,4.5-3A22,22,0,0,1,686.9,440Z" transform="translate(-639.22 -410.28)"/><path class="cls-4" d="M686.89,441.2a11.48,11.48,0,0,1-.22,1.74,10.64,10.64,0,0,1-.54,1.78c-3.44-.45-5-1.65-3.42-2A23.6,23.6,0,0,0,686.89,441.2Z" transform="translate(-639.22 -410.28)"/><g class="cls-5"><path class="cls-6" d="M651,428.51c.5.43,3-1.15,3.32-1.6s-3.32-3.94-3.86-3.85S650.42,428.05,651,428.51Z" transform="translate(-639.22 -410.28)"/><path class="cls-6" d="M679.73,427.45c-.36-.31,3.25-4.12,3.73-4.12s.51,5.38,0,5.56S680.9,428.44,679.73,427.45Z" transform="translate(-639.22 -410.28)"/></g><path class="cls-7" d="M646.91,442.17h0l-3.11-.47a.29.29,0,0,1-.24-.33.28.28,0,0,1,.32-.24l3.12.47a.29.29,0,0,1,0,.57Z" transform="translate(-639.22 -410.28)"/><path class="cls-7" d="M643.52,444.3a.28.28,0,0,1-.28-.25.29.29,0,0,1,.25-.32l3.39-.34a.29.29,0,1,1,0,.57l-3.38.34Z" transform="translate(-639.22 -410.28)"/><path class="cls-7" d="M644.33,447.15a.28.28,0,0,1-.27-.19.29.29,0,0,1,.17-.37l3.08-1.14a.29.29,0,0,1,.37.17.27.27,0,0,1-.17.36l-3.08,1.15Z" transform="translate(-639.22 -410.28)"/><path class="cls-7" d="M686.9,440.33a.29.29,0,0,1-.27-.2.28.28,0,0,1,.19-.36l3.14-1a.27.27,0,0,1,.35.19.28.28,0,0,1-.18.36l-3.14,1Z" transform="translate(-639.22 -410.28)"/><path class="cls-7" d="M686.71,442.53a.28.28,0,0,1-.28-.26.28.28,0,0,1,.25-.31l3.6-.36a.29.29,0,0,1,.31.25.28.28,0,0,1-.25.32l-3.6.36Z" transform="translate(-639.22 -410.28)"/><path class="cls-7" d="M689.27,445.62h-.1l-3.4-1.24a.28.28,0,1,1,.2-.53l3.4,1.23a.29.29,0,0,1,.17.36A.3.3,0,0,1,689.27,445.62Z" transform="translate(-639.22 -410.28)"/><path class="cls-6" d="M665.21,441.88a.91.91,0,0,1-.43-.13c-1-.51-2.27-2.38.43-2.38a4.34,4.34,0,0,1,.78.06C668.14,439.81,666.27,441.88,665.21,441.88Z" transform="translate(-639.22 -410.28)"/><path class="cls-7" d="M667,446.31a2.55,2.55,0,0,0-.65-1,2,2,0,0,0-.88-.41,15.51,15.51,0,0,0,0-3,.3.3,0,0,0-.29-.29.28.28,0,0,0-.29.29,17.21,17.21,0,0,1,0,3,1.88,1.88,0,0,0-1.45,1.16.3.3,0,0,0,.57.16,1.27,1.27,0,0,1,1.24-.76,1.48,1.48,0,0,1,1.19,1,.3.3,0,0,0,.36.21A.29.29,0,0,0,667,446.31Z" transform="translate(-639.22 -410.28)"/><ellipse class="cls-7" cx="17.71" cy="30.02" rx="1.31" ry="1.94"/><path class="cls-7" d="M674.43,439.75c0,1.07-.59,1.94-1.31,1.94s-1.31-.87-1.31-1.94.58-1.94,1.31-1.94S674.43,438.68,674.43,439.75Z" transform="translate(-639.22 -410.28)"/><circle class="cls-8" cx="666.34" cy="437.4" r="24.94" transform="translate(-767.88 84.61) rotate(-37.42)"/><line class="cls-9" x1="10.85" y1="8.23" x2="43.56" y2="45.87"/></g></g></g></svg>