<svg xmlns="http://www.w3.org/2000/svg" viewBox="0 0 53.07 46.72"><defs><style>.cls-1{fill:#93c3fd;}.cls-2{fill:#fff;}.cls-3{fill:#ff3e14;}.cls-4{fill:none;stroke:#fff;stroke-linecap:round;stroke-linejoin:round;stroke-width:1.15px;}</style></defs><title>doctor</title><g id="Layer_2" data-name="Layer 2"><g id="OBJECTS"><rect class="cls-1" y="10.64" width="53.07" height="35.5" rx="5.28"/><path class="cls-2" d="M762.46,414.33h-3.08A10.64,10.64,0,0,0,748.73,425h4.2a7,7,0,0,1,7-7h2a7,7,0,0,1,7,7h4.19A10.64,10.64,0,0,0,762.46,414.33Z" transform="translate(-734.38 -414.33)"/><polygon class="cls-3" points="35.62 25.14 29.79 25.14 29.79 19.31 23.29 19.31 23.29 25.14 17.45 25.14 17.45 31.64 23.29 31.64 23.29 37.48 29.79 37.48 29.79 31.64 35.62 31.64 35.62 25.14"/><line class="cls-4" x1="7.18" y1="46.14" x2="7.18" y2="10.64"/><line class="cls-4" x1="11.51" y1="10.64" x2="11.51" y2="46.14"/><line class="cls-4" x1="41.56" y1="46.14" x2="41.56" y2="10.64"/><line class="cls-4" x1="45.9" y1="10.64" x2="45.9" y2="46.14"/></g></g></svg>