<svg width="277" height="30" viewBox="0 0 277 30" fill="none" xmlns="http://www.w3.org/2000/svg">
<path d="M10.564 6.208C12.356 6.208 13.7747 6.80533 14.82 8C15.884 9.19467 16.416 10.8373 16.416 12.928V22H11.628V13.488C11.628 12.4427 11.348 11.6307 10.788 11.052C10.2467 10.4547 9.51867 10.156 8.604 10.156C7.63333 10.156 6.85867 10.464 6.28 11.08C5.72 11.696 5.44 12.5733 5.44 13.712V22H0.652V6.376H5.44V9.232C5.888 8.29867 6.55067 7.56133 7.428 7.02C8.324 6.47867 9.36933 6.208 10.564 6.208ZM28.6179 2.008C31.1379 2.008 33.2192 2.67067 34.8619 3.996C36.5232 5.32133 37.5965 7.11333 38.0819 9.372H33.0139C32.6405 8.45733 32.0619 7.73867 31.2779 7.216C30.5125 6.69333 29.5979 6.432 28.5339 6.432C27.1339 6.432 26.0045 6.94533 25.1459 7.972C24.2872 8.99867 23.8579 10.3707 23.8579 12.088C23.8579 13.8053 24.2872 15.1773 25.1459 16.204C26.0045 17.212 27.1339 17.716 28.5339 17.716C29.5979 17.716 30.5125 17.4547 31.2779 16.932C32.0619 16.4093 32.6405 15.7 33.0139 14.804H38.0819C37.5965 17.044 36.5232 18.836 34.8619 20.18C33.2192 21.5053 31.1379 22.168 28.6179 22.168C26.6952 22.168 25.0059 21.748 23.5499 20.908C22.0939 20.0493 20.9645 18.8547 20.1619 17.324C19.3779 15.7933 18.9859 14.048 18.9859 12.088C18.9859 10.128 19.3779 8.38267 20.1619 6.852C20.9645 5.32133 22.0939 4.136 23.5499 3.296C25.0059 2.43733 26.6952 2.008 28.6179 2.008ZM48.0733 6.18C49.6226 6.18 51.0039 6.50667 52.2173 7.16C53.4493 7.79467 54.4106 8.71867 55.1013 9.932C55.8106 11.1453 56.1653 12.564 56.1653 14.188C56.1653 15.812 55.8106 17.2307 55.1013 18.444C54.4106 19.6573 53.4493 20.5907 52.2173 21.244C51.0039 21.8787 49.6226 22.196 48.0733 22.196C46.5239 22.196 45.1333 21.8787 43.9013 21.244C42.6693 20.5907 41.6986 19.6573 40.9893 18.444C40.2986 17.2307 39.9533 15.812 39.9533 14.188C39.9533 12.564 40.2986 11.1453 40.9893 9.932C41.6986 8.71867 42.6693 7.79467 43.9013 7.16C45.1333 6.50667 46.5239 6.18 48.0733 6.18ZM48.0733 10.324C47.1586 10.324 46.3839 10.66 45.7493 11.332C45.1333 11.9853 44.8253 12.9373 44.8253 14.188C44.8253 15.4387 45.1333 16.3907 45.7493 17.044C46.3839 17.6973 47.1586 18.024 48.0733 18.024C48.9879 18.024 49.7533 17.6973 50.3693 17.044C50.9853 16.3907 51.2933 15.4387 51.2933 14.188C51.2933 12.9373 50.9853 11.9853 50.3693 11.332C49.7533 10.66 48.9879 10.324 48.0733 10.324ZM65.8721 17.324L69.2601 6.376H74.3561L68.8121 22H62.8761L57.3321 6.376H62.4281L65.8721 17.324ZM96.169 16.428C96.169 17.4733 95.8983 18.4347 95.357 19.312C94.8343 20.1893 94.0503 20.8893 93.005 21.412C91.9783 21.9347 90.7276 22.196 89.253 22.196C87.0316 22.196 85.2023 21.6547 83.765 20.572C82.3276 19.4893 81.5436 17.9773 81.413 16.036H86.509C86.5836 16.7827 86.845 17.3707 87.293 17.8C87.7596 18.2293 88.3476 18.444 89.057 18.444C89.673 18.444 90.1583 18.276 90.513 17.94C90.8676 17.604 91.045 17.156 91.045 16.596C91.045 16.092 90.877 15.672 90.541 15.336C90.2236 15 89.8223 14.7293 89.337 14.524C88.8516 14.3 88.1796 14.0387 87.321 13.74C86.0703 13.3107 85.0436 12.9 84.241 12.508C83.457 12.0973 82.7756 11.5 82.197 10.716C81.637 9.91333 81.357 8.87733 81.357 7.608C81.357 6.432 81.6556 5.41467 82.253 4.556C82.8503 3.69733 83.6716 3.044 84.717 2.596C85.781 2.12933 86.9943 1.896 88.357 1.896C90.5596 1.896 92.305 2.41867 93.593 3.464C94.8996 4.50933 95.637 5.94667 95.805 7.776H90.625C90.5316 7.12267 90.289 6.60933 89.897 6.236C89.5236 5.844 89.0103 5.648 88.357 5.648C87.797 5.648 87.3396 5.79733 86.985 6.096C86.649 6.39467 86.481 6.83333 86.481 7.412C86.481 7.87867 86.6303 8.28 86.929 8.616C87.2463 8.93333 87.6383 9.19467 88.105 9.4C88.5716 9.60533 89.2436 9.86667 90.121 10.184C91.3903 10.6133 92.4263 11.0427 93.229 11.472C94.0316 11.8827 94.7223 12.4893 95.301 13.292C95.8796 14.0947 96.169 15.14 96.169 16.428ZM113.656 13.768C113.656 14.16 113.609 14.5893 113.516 15.056H102.68C102.736 16.232 103.035 17.0813 103.576 17.604C104.117 18.108 104.808 18.36 105.648 18.36C106.357 18.36 106.945 18.1827 107.412 17.828C107.879 17.4733 108.187 17.016 108.336 16.456H113.404C113.199 17.5573 112.751 18.5467 112.06 19.424C111.369 20.2827 110.492 20.964 109.428 21.468C108.364 21.9533 107.179 22.196 105.872 22.196C104.341 22.196 102.979 21.8787 101.784 21.244C100.608 20.5907 99.6841 19.6573 99.0121 18.444C98.3401 17.2307 98.0041 15.812 98.0041 14.188C98.0041 12.5453 98.3307 11.1267 98.9841 9.932C99.6561 8.71867 100.589 7.79467 101.784 7.16C102.979 6.50667 104.341 6.18 105.872 6.18C107.421 6.18 108.784 6.49733 109.96 7.132C111.136 7.76667 112.041 8.66267 112.676 9.82C113.329 10.9587 113.656 12.2747 113.656 13.768ZM108.812 13.04C108.831 12.0133 108.551 11.248 107.972 10.744C107.412 10.2213 106.712 9.96 105.872 9.96C104.995 9.96 104.267 10.2213 103.688 10.744C103.109 11.2667 102.783 12.032 102.708 13.04H108.812ZM120.94 1.28V22H116.152V1.28H120.94ZM131.918 4.248C131.134 4.248 130.564 4.416 130.21 4.752C129.855 5.088 129.659 5.62933 129.622 6.376H132.45V10.408H129.622V22H124.834V10.408H122.958V6.376H124.834V6.208C124.834 4.26667 125.394 2.77333 126.514 1.728C127.652 0.663999 129.295 0.131999 131.442 0.131999C131.89 0.131999 132.226 0.141333 132.45 0.159999V4.276L131.918 4.248ZM145.418 10.184V14.16H133.07V10.184H145.418ZM158.801 2.008C161.321 2.008 163.403 2.67067 165.045 3.996C166.707 5.32133 167.78 7.11333 168.265 9.372H163.197C162.824 8.45733 162.245 7.73867 161.461 7.216C160.696 6.69333 159.781 6.432 158.717 6.432C157.317 6.432 156.188 6.94533 155.329 7.972C154.471 8.99867 154.041 10.3707 154.041 12.088C154.041 13.8053 154.471 15.1773 155.329 16.204C156.188 17.212 157.317 17.716 158.717 17.716C159.781 17.716 160.696 17.4547 161.461 16.932C162.245 16.4093 162.824 15.7 163.197 14.804H168.265C167.78 17.044 166.707 18.836 165.045 20.18C163.403 21.5053 161.321 22.168 158.801 22.168C156.879 22.168 155.189 21.748 153.733 20.908C152.277 20.0493 151.148 18.8547 150.345 17.324C149.561 15.7933 149.169 14.048 149.169 12.088C149.169 10.128 149.561 8.38267 150.345 6.852C151.148 5.32133 152.277 4.136 153.733 3.296C155.189 2.43733 156.879 2.008 158.801 2.008ZM180.861 6.208C182.653 6.208 184.072 6.80533 185.117 8C186.181 9.19467 186.713 10.8373 186.713 12.928V22H181.925V13.488C181.925 12.4427 181.645 11.6307 181.085 11.052C180.544 10.4547 179.816 10.156 178.901 10.156C177.93 10.156 177.156 10.464 176.577 11.08C176.017 11.696 175.737 12.5733 175.737 13.712V22H170.949V1.28H175.737V9.232C176.185 8.29867 176.848 7.56133 177.725 7.02C178.621 6.47867 179.666 6.208 180.861 6.208ZM204.711 13.768C204.711 14.16 204.664 14.5893 204.571 15.056H193.735C193.791 16.232 194.089 17.0813 194.631 17.604C195.172 18.108 195.863 18.36 196.703 18.36C197.412 18.36 198 18.1827 198.467 17.828C198.933 17.4733 199.241 17.016 199.391 16.456H204.459C204.253 17.5573 203.805 18.5467 203.115 19.424C202.424 20.2827 201.547 20.964 200.483 21.468C199.419 21.9533 198.233 22.196 196.927 22.196C195.396 22.196 194.033 21.8787 192.839 21.244C191.663 20.5907 190.739 19.6573 190.067 18.444C189.395 17.2307 189.059 15.812 189.059 14.188C189.059 12.5453 189.385 11.1267 190.039 9.932C190.711 8.71867 191.644 7.79467 192.839 7.16C194.033 6.50667 195.396 6.18 196.927 6.18C198.476 6.18 199.839 6.49733 201.015 7.132C202.191 7.76667 203.096 8.66267 203.731 9.82C204.384 10.9587 204.711 12.2747 204.711 13.768ZM199.867 13.04C199.885 12.0133 199.605 11.248 199.027 10.744C198.467 10.2213 197.767 9.96 196.927 9.96C196.049 9.96 195.321 10.2213 194.743 10.744C194.164 11.2667 193.837 12.032 193.763 13.04H199.867ZM214.263 6.18C216.279 6.18 217.968 6.74 219.331 7.86C220.693 8.96133 221.552 10.4827 221.907 12.424H216.839C216.689 11.752 216.381 11.2293 215.915 10.856C215.448 10.4827 214.86 10.296 214.151 10.296C213.311 10.296 212.62 10.632 212.079 11.304C211.537 11.9573 211.267 12.9187 211.267 14.188C211.267 15.4573 211.537 16.428 212.079 17.1C212.62 17.7533 213.311 18.08 214.151 18.08C214.86 18.08 215.448 17.8933 215.915 17.52C216.381 17.1467 216.689 16.624 216.839 15.952H221.907C221.552 17.8933 220.693 19.424 219.331 20.544C217.968 21.6453 216.279 22.196 214.263 22.196C212.732 22.196 211.369 21.8787 210.175 21.244C208.999 20.5907 208.075 19.6573 207.403 18.444C206.731 17.2307 206.395 15.812 206.395 14.188C206.395 12.5453 206.721 11.1267 207.375 9.932C208.047 8.71867 208.98 7.79467 210.175 7.16C211.369 6.50667 212.732 6.18 214.263 6.18ZM233.87 22L229.194 15.364V22H224.406V1.28H229.194V12.648L233.87 6.376H239.498L233.198 14.188L239.638 22H233.87ZM256.926 6.376V22H252.11V19.172C251.662 20.0867 250.99 20.8147 250.094 21.356C249.217 21.8973 248.19 22.168 247.014 22.168C245.222 22.168 243.794 21.5707 242.73 20.376C241.685 19.1813 241.162 17.5387 241.162 15.448V6.376H245.922V14.86C245.922 15.924 246.193 16.7547 246.734 17.352C247.294 17.9307 248.041 18.22 248.974 18.22C249.945 18.22 250.71 17.912 251.27 17.296C251.83 16.68 252.11 15.8027 252.11 14.664V6.376H256.926ZM269.97 6.18C271.258 6.18 272.406 6.50667 273.414 7.16C274.441 7.79467 275.244 8.71867 275.822 9.932C276.42 11.1267 276.718 12.5453 276.718 14.188C276.718 15.812 276.42 17.2307 275.822 18.444C275.244 19.6573 274.441 20.5907 273.414 21.244C272.406 21.8787 271.258 22.196 269.97 22.196C268.776 22.196 267.749 21.9253 266.89 21.384C266.032 20.8427 265.406 20.1053 265.014 19.172V29.448H260.226V6.376H265.014V9.204C265.406 8.27067 266.032 7.53333 266.89 6.992C267.749 6.45067 268.776 6.18 269.97 6.18ZM268.43 10.38C267.422 10.38 266.592 10.7253 265.938 11.416C265.304 12.088 264.986 13.012 264.986 14.188C264.986 15.3453 265.304 16.2693 265.938 16.96C266.592 17.6507 267.422 17.996 268.43 17.996C269.457 17.996 270.278 17.66 270.894 16.988C271.529 16.316 271.846 15.3827 271.846 14.188C271.846 12.9933 271.529 12.06 270.894 11.388C270.278 10.716 269.457 10.38 268.43 10.38Z" fill="black"/>
</svg>
