<svg xmlns="http://www.w3.org/2000/svg" xmlns:xlink="http://www.w3.org/1999/xlink" viewBox="0 0 56.45 64.08"><defs><style>.cls-1{fill:#181818;}.cls-2{fill:#ff3e14;}.cls-3{fill:#fbb990;}.cls-4{fill:#fb9476;}.cls-5{fill:#fff;}.cls-6{fill:#d4e7fe;}.cls-7{fill:#c0dcfe;}.cls-8{opacity:0.4;fill:url(#Degradado_sin_nombre_4);}</style><radialGradient id="Degradado_sin_nombre_4" cx="566.87" cy="445.05" r="8.58" gradientUnits="userSpaceOnUse"><stop offset="0" stop-color="#ff3e14"/><stop offset="0.22" stop-color="#ff3e14" stop-opacity="0.76"/><stop offset="0.6" stop-color="#ff3e14" stop-opacity="0.36"/><stop offset="0.87" stop-color="#ff3e14" stop-opacity="0.1"/><stop offset="1" stop-color="#ff3e14" stop-opacity="0"/></radialGradient></defs><title>Mask</title><g id="Layer_2" data-name="Layer 2"><g id="OBJECTS"><path class="cls-1" d="M571.91,421.49l8.52,3.09s2.55,3.52,5.9,2.8c1.34-.29,2.81-1.27,4.3-3.43,5.19-7.54-7.33-18-14.86-16.23-3.69.86-4.69,4.19-4.75,7.36A23.53,23.53,0,0,0,571.91,421.49Z" transform="translate(-544.54 -405.36)"/><path class="cls-2" d="M571.91,421.49l8.52,3.09s2.55,3.52,5.9,2.8c0-3.91-5.48-11.05-15.31-12.3A23.53,23.53,0,0,0,571.91,421.49Z" transform="translate(-544.54 -405.36)"/><path class="cls-2" d="M571.27,417a.55.55,0,0,1-.46-.37c-.27-.83-2.61-8.19-.52-10.55a2.43,2.43,0,0,1,2.47-.68,2.23,2.23,0,0,1,1.66,1.28c1.31,2.82-2.23,9.32-2.64,10.05a.52.52,0,0,1-.46.27Zm-.18-10.21c-1.2,1.36-.35,5.68.36,8.27,1.16-2.34,2.77-6.28,2-7.94a1.14,1.14,0,0,0-.9-.67,2.27,2.27,0,0,0-.5-.06A1.2,1.2,0,0,0,571.09,406.82Z" transform="translate(-544.54 -405.36)"/><path class="cls-2" d="M571,417c-.79-.28-7.71-2.88-8.57-5.87a2.23,2.23,0,0,1,.42-2.05,2.44,2.44,0,0,1,2.31-1.11c3.13.42,6.18,7.52,6.51,8.33a.52.52,0,0,1-.49.73A.57.57,0,0,1,571,417Zm-7.31-7.27a1.19,1.19,0,0,0-.24,1.1c.51,1.76,4.31,3.68,6.71,4.69-1.16-2.42-3.34-6.25-5.14-6.49h-.16A1.54,1.54,0,0,0,563.68,409.76Z" transform="translate(-544.54 -405.36)"/><path class="cls-1" d="M587,428.49a6.75,6.75,0,0,0,5.27-4c3.1-6.46-4.32-11.92-4.39-12a.34.34,0,1,0-.4.55c.07.05,7,5.18,4.18,11.13-2.55,5.31-8.16,3.44-8.4,3.36a.34.34,0,1,0-.22.64A9.54,9.54,0,0,0,587,428.49Z" transform="translate(-544.54 -405.36)"/><path class="cls-1" d="M562.3,429.29s-3.32,13.95,1.3,23,9.25,11.5,2.62,14.3-14.17-2.54-19.23.24c-6.11,3.36.74-24.8,3.8-36.72,3.12-12.19,18-13.56,18-13.56Z" transform="translate(-544.54 -405.36)"/><path class="cls-1" d="M553.52,439.31s-5.94-13.6,5.19-20,22.38-1.57,25.38,5.81a11.61,11.61,0,0,1-1.59,12.21Z" transform="translate(-544.54 -405.36)"/><path class="cls-3" d="M572.6,468c-3.21.89-4.5-.53-5.48-1.59l-.67-5.76-.39-3.36-.08-.5,1.48-.16,10.9-3.15,1.48,6.92.7,3.29A16.6,16.6,0,0,1,572.6,468Z" transform="translate(-544.54 -405.36)"/><path class="cls-4" d="M566.45,460.68c3.38,1.52,10,.83,13.39-.25h0l-1.51-6.91-10.9,3.15-1.48.16.08.5Z" transform="translate(-544.54 -405.36)"/><path class="cls-3" d="M557.55,439.4s-6.47-1.88-5.2,3.84c1.4,6.29,6.55,4.5,7.44,4.1Z" transform="translate(-544.54 -405.36)"/><path class="cls-5" d="M562.2,449.86a4.39,4.39,0,1,1-6-3.42h0c.31.08.38.32.4.58A3.69,3.69,0,1,0,561.5,450a3.59,3.59,0,0,0-1.24-2.24,2.9,2.9,0,0,0-.53-.39,3,3,0,0,0,.47-.53,5.74,5.74,0,0,1,.5.36A4.4,4.4,0,0,1,562.2,449.86Z" transform="translate(-544.54 -405.36)"/><path class="cls-4" d="M556.82,445.47h0a.35.35,0,0,0,.25-.43,5.77,5.77,0,0,0-2.85-3.78.35.35,0,0,0-.46.18.34.34,0,0,0,.17.46,5.06,5.06,0,0,1,2.46,3.32A.37.37,0,0,0,556.82,445.47Z" transform="translate(-544.54 -405.36)"/><path class="cls-4" d="M554.51,444.3a.38.38,0,0,0,.25-.16,1.47,1.47,0,0,1,1.06-.71.36.36,0,0,0,0-.71,2.19,2.19,0,0,0-1.65,1,.35.35,0,0,0,.35.53Z" transform="translate(-544.54 -405.36)"/><path class="cls-3" d="M554,438.61a37.46,37.46,0,0,0,1.79,6.56c.35.94.73,1.85,1.13,2.72,2.86,6.17,7,10.61,10.23,11,5.19.6,11.07-1.93,14-8.69a16.14,16.14,0,0,0,1.2-4c0-.22.07-.44.09-.67.85-7-.93-17-.93-17-4.25-6.35-13.39-4.66-18.69-3.79S552.15,428.2,554,438.61Z" transform="translate(-544.54 -405.36)"/><path class="cls-4" d="M555.79,445.17c.35.94.73,1.85,1.13,2.72a8.74,8.74,0,0,0,1.42-.09c2.21-.31,3.89-1.28,3.77-2.16s-2-1.33-4.22-1A8.69,8.69,0,0,0,555.79,445.17Z" transform="translate(-544.54 -405.36)"/><path class="cls-4" d="M572,443.92c.12.89,2,1.35,4.26,1s3.92-1.29,3.8-2.17-2-1.35-4.26-1S571.84,443,572,443.92Z" transform="translate(-544.54 -405.36)"/><path class="cls-6" d="M581.16,438.31a2.29,2.29,0,0,1,.92-2.17c1.7-1.24,4-1.94,5.1.31,2.1,4.17-1.71,9.76-5,9Z" transform="translate(-544.54 -405.36)"/><path class="cls-7" d="M580.47,445.2a1.54,1.54,0,0,0,.19.17,4.29,4.29,0,0,0,.58.4,4.47,4.47,0,0,0,1.07.42c0-.22.07-.44.09-.67a3.34,3.34,0,0,1-.76-.28,3.55,3.55,0,0,1-.61-.37l-.23-.2a.24.24,0,0,0-.39.06A.38.38,0,0,0,580.47,445.2Z" transform="translate(-544.54 -405.36)"/><path class="cls-7" d="M583.65,442.57a.33.33,0,0,0,.3-.35,5.61,5.61,0,0,1,1.74-4.33.36.36,0,1,0-.45-.55,6.27,6.27,0,0,0-2,4.89.36.36,0,0,0,.36.35Z" transform="translate(-544.54 -405.36)"/><path class="cls-7" d="M585.9,440.6a.33.33,0,0,0,.21-.12.34.34,0,0,0,0-.49,2.55,2.55,0,0,0-2.13-.58.35.35,0,0,0-.25.43.37.37,0,0,0,.43.25,1.87,1.87,0,0,1,1.49.43A.34.34,0,0,0,585.9,440.6Z" transform="translate(-544.54 -405.36)"/><path class="cls-4" d="M566.8,446.89c-2.39-1.13-2.29-1.69-2.26-1.87l.78-4.18a.36.36,0,0,1,.41-.28h0a.35.35,0,0,1,.28.41c-.17.93-.64,3.48-.76,4.12a6.52,6.52,0,0,0,1.84,1.16.38.38,0,0,1,.21.38.36.36,0,0,1-.3.29A.34.34,0,0,1,566.8,446.89Zm-1.57-1.74Z" transform="translate(-544.54 -405.36)"/><path class="cls-1" d="M557.59,439.8a6.94,6.94,0,0,1,.75-1.21,7.07,7.07,0,0,1,1-1,4.72,4.72,0,0,1,1.11-.75,4.88,4.88,0,0,1,1.21-.44h0a.83.83,0,1,0-.41-1.6l-.15.05a7.09,7.09,0,0,0-1.43.87,6.94,6.94,0,0,0-1.14,1.16,8.23,8.23,0,0,0-.83,1.34,7.29,7.29,0,0,0-.54,1.46.22.22,0,0,0,.16.27.21.21,0,0,0,.26-.12Z" transform="translate(-544.54 -405.36)"/><path class="cls-1" d="M576.52,436.78a8.56,8.56,0,0,0-1.18-1.3,9.23,9.23,0,0,0-1.43-1.05,7.47,7.47,0,0,0-3.54-1.05.82.82,0,1,0-.11,1.64h.19a5.71,5.71,0,0,1,1.49,0,6.17,6.17,0,0,1,1.51.37,8.33,8.33,0,0,1,2.72,1.7h0a.23.23,0,0,0,.34-.3Z" transform="translate(-544.54 -405.36)"/><path class="cls-1" d="M576.92,427.69s-6.52,8.89-21.74,8.46c-8.2-.24-1.08-13,11.13-13.75S576.92,427.69,576.92,427.69Z" transform="translate(-544.54 -405.36)"/><path class="cls-1" d="M555.14,434.75s-.92,6.79.65,10.42c0,0-2.94-6.07-2-9.91S555.14,434.75,555.14,434.75Z" transform="translate(-544.54 -405.36)"/><path class="cls-1" d="M572.84,427.71s7.26,12.38,5.48,22.36S574,468,581.11,468.76s11.79-2.05,18.13.46h0l.2.08a2,2,0,0,0,.45.13c1.1.14,1.31-1.29.9-3.74-.15-.86-.37-1.85-.66-2.95a154.3,154.3,0,0,0-7.07-19.26c-2.34-5.46-4.83-10.75-6.9-14.68-.76-1.43-1.46-2.67-2.07-3.69-6.55-10.74-21.15-7.71-21.15-7.71Z" transform="translate(-544.54 -405.36)"/><path class="cls-1" d="M585.72,429.27c.07.12,3.76,6.92,7.34,14.21,2.92,5.95,5.77,12.23,6.51,15.49a24.8,24.8,0,0,1,.56,3.77,13.45,13.45,0,0,1-.89,6.48l.2.08a2,2,0,0,0,.45.13,11.5,11.5,0,0,0,.9-3.74,22.21,22.21,0,0,0-.56-6.87c-1.66-7.34-13.42-29-13.92-29.87a.31.31,0,0,0-.15-.15.35.35,0,0,0-.3,0A.34.34,0,0,0,585.72,429.27Z" transform="translate(-544.54 -405.36)"/><path class="cls-8" d="M564.22,436.17s7.91-2.41,10.16,6.29-5.54,12.59-10.48,11.64S555.7,437.64,564.22,436.17Z" transform="translate(-544.54 -405.36)"/><path class="cls-5" d="M566,440.61a6.1,6.1,0,1,1,6.1,6.1A6.11,6.11,0,0,1,566,440.61Zm.74,0a5.36,5.36,0,1,0,5.36-5.37A5.37,5.37,0,0,0,566.75,440.61Z" transform="translate(-544.54 -405.36)"/><path class="cls-5" d="M552.49,443.35a6.1,6.1,0,1,1,6.1,6.1A6.11,6.11,0,0,1,552.49,443.35Zm.74,0a5.37,5.37,0,1,0,5.36-5.37A5.37,5.37,0,0,0,553.23,443.35Z" transform="translate(-544.54 -405.36)"/><path class="cls-5" d="M564.35,441.76a1.63,1.63,0,0,1,1.9-.56l.25-.69a2.34,2.34,0,0,0-2.77.85Z" transform="translate(-544.54 -405.36)"/><path class="cls-1" d="M561,442.68c0,1.07-.4,2-1,2s-1.12-.82-1.17-1.89a3.31,3.31,0,0,1,.16-1.14,1.47,1.47,0,0,1-1.45-.57,6.8,6.8,0,0,0,2-.22l.25-.06C560.48,440.76,561,441.6,561,442.68Z" transform="translate(-544.54 -405.36)"/><path class="cls-1" d="M570.51,441c.13,1.07.72,1.87,1.31,1.8s1-1,.84-2.07a3,3,0,0,0-.34-1.1,1.47,1.47,0,0,0,1.34-.79,7.21,7.21,0,0,1-2.06.12l-.26,0C570.75,439,570.38,439.89,570.51,441Z" transform="translate(-544.54 -405.36)"/><path class="cls-5" d="M582.17,445.73c-.57,1.52-1.13,3-1.72,4.57-.2.51-.43,1-.67,1.52a34,34,0,0,0-.07-4.16,24.26,24.26,0,0,0-.49-4.6,2.52,2.52,0,0,0-.28-.64l2.46-3.92c.33-.52-.49-1-.82-.48l-2.4,3.81a1.86,1.86,0,0,0-.91,0c-1.21.26-2.41.78-3.61,1.12a58.51,58.51,0,0,1-16.94,2.25.45.45,0,0,0-.43.36,2.29,2.29,0,0,0-1,1,4.73,4.73,0,0,0-.23,3.55c.34,1.29.91,2.54,1.32,3.77,1.52,4.58,9.18,6.25,12.85,5.63a21,21,0,0,0,6.5-1.92,8.2,8.2,0,0,0,3.27-2.86s0,0,0,0a11.2,11.2,0,0,0,2.26-3.84c.64-1.6,1.22-3.22,1.83-4.83C583.3,445.4,582.38,445.16,582.17,445.73Z" transform="translate(-544.54 -405.36)"/></g></g></svg>