<svg xmlns="http://www.w3.org/2000/svg" viewBox="0 0 63.86 36.78"><defs><style>.cls-1{fill:#fb9476;}.cls-2{fill:#ff3e14;}.cls-3{fill:#fa7764;}.cls-4{fill:#fff;}</style></defs><title>Tissue</title><g id="Layer_2" data-name="Layer 2"><g id="OBJECTS"><path class="cls-1" d="M503.34,446.88v-8.95c0-.16-.13-.24-.27-.26a.23.23,0,0,0-.21-.22q-12.62-1.67-25.07-4.13-3.48-.69-7-1.44a1.33,1.33,0,0,1-.53.11q-11.51,5.56-23.45,10.4c-2.25.91-4.51,1.79-6.78,2.66,0,0,0,0-.05,0-.22.12-.26.45.05.5h0V456.5c0,.36.63.36.63,0v-.08s.06.05.11.06q12.69,1.63,25.42,3l7.16.77.57.12a.35.35,0,0,0,.43.13q11.49-4.91,22.75-10.17A48.43,48.43,0,0,0,503.34,446.88Z" transform="translate(-439.6 -424.01)"/><path class="cls-2" d="M473.84,449.13a.31.31,0,0,0-.3-.29q-13.16-.94-26.2-2.71-3.63-.48-7.26-1a.3.3,0,0,0-.37.33s0,.05,0,.08v10.81c-.12.15-.11.36.14.39l26.58,3.16,7.55.89a.33.33,0,0,0,.38-.26.22.22,0,0,0,.11-.21V449.22C474.43,448.89,473.94,448.88,473.84,449.13Z" transform="translate(-439.6 -424.01)"/><path class="cls-3" d="M502.49,437.25c-3.85,1-26.12,11.08-28.37,11.53a.25.25,0,0,0-.1.47s-.06.06-.06.11v10.87a.28.28,0,1,0,.18.54c7.8-2.83,15-6.74,22.44-10.17,2.08-1,6.88-2.94,6.88-3.22l0-9.89C503.42,437.17,502.66,437.2,502.49,437.25Z" transform="translate(-439.6 -424.01)"/><path class="cls-4" d="M472.65,426.56c1.58,2.49-3.06,5.22-7.15,3.11S460,433,462,434.27c1.61,1,3.31,5.16,3.47,7.08l-.61.39c-.56.27-1.23.6-1.44,1.24a.86.86,0,0,0,.08.72,3.42,3.42,0,0,0,.9.59,12.06,12.06,0,0,0,2,.92,6.34,6.34,0,0,0,4.19.11c1.42-.51,11.31-5.35,10.83-6.91-.18-.59-.81-.89-1.31-1.14a5.42,5.42,0,0,0-.56-.22c0-2.19.39-7.25,2.87-10.49C485.62,422.34,471.08,424.08,472.65,426.56Z" transform="translate(-439.6 -424.01)"/></g></g></svg>