<svg xmlns="http://www.w3.org/2000/svg" xmlns:xlink="http://www.w3.org/1999/xlink" viewBox="0 0 85.84 36.81"><defs><style>.cls-1,.cls-4{fill:#ff3e14;}.cls-2{isolation:isolate;}.cls-3{clip-path:url(#clip-path);}.cls-4{opacity:0.5;mix-blend-mode:multiply;}.cls-5{fill:#fb9476;}.cls-6{fill:#fff;}.cls-7{clip-path:url(#clip-path-2);}.cls-8{fill:#fbb990;}</style><clipPath id="clip-path" transform="translate(3.34)"><path class="cls-1" d="M29.19,9.78c-2.44-2.09-6-2.73-8.08-5.3-1-1.31-1.72-2.86-3.29-3.63A6.39,6.39,0,0,0,13.45.51,11.53,11.53,0,0,0,9,3.07,33.26,33.26,0,0,0,5.53,6.43,22.83,22.83,0,0,0,.72,14.49c-.95,2.93-1.44,7,1.69,8.74a32.17,32.17,0,0,0,4.94,1.92c1.77.64,3.54,1.31,5.32,1.93,3.32,1.17,7.19,2.24,10.59.76a8.45,8.45,0,0,0,2.86-2.05c2.2-1.83,3.41-4.7,4.46-7.3a9.55,9.55,0,0,0,1-4.6A6.33,6.33,0,0,0,29.19,9.78Z"/></clipPath><clipPath id="clip-path-2" transform="translate(3.34)"><path class="cls-1" d="M79.09,5.91A17.53,17.53,0,0,0,75.36,2C74,1,72.3-.09,70.54,0a5.39,5.39,0,0,0-3.91,2.63A24.1,24.1,0,0,1,63.3,7c-3,2.68-7.12,3.63-10.63,5.5C49.75,14.08,47,16.57,46.55,20a5.31,5.31,0,0,0,.16,2.21.37.37,0,0,0,.48.27,10.28,10.28,0,0,0,1.06,4C49.76,29.56,52.43,32,56,31.72a18.16,18.16,0,0,0,5-1.44l6.24-2.41,6.11-2.36a26.19,26.19,0,0,0,5.19-2.45C84.72,19,82.66,11,79.09,5.91Z"/></clipPath></defs><title>wash</title><g class="cls-2"><g id="Layer_2" data-name="Layer 2"><g id="OBJECTS"><path class="cls-1" d="M29.19,9.78c-2.44-2.09-6-2.73-8.08-5.3-1-1.31-1.72-2.86-3.29-3.63A6.39,6.39,0,0,0,13.45.51,11.53,11.53,0,0,0,9,3.07,33.26,33.26,0,0,0,5.53,6.43,22.83,22.83,0,0,0,.72,14.49c-.95,2.93-1.44,7,1.69,8.74a32.17,32.17,0,0,0,4.94,1.92c1.77.64,3.54,1.31,5.32,1.93,3.32,1.17,7.19,2.24,10.59.76a8.45,8.45,0,0,0,2.86-2.05c2.2-1.83,3.41-4.7,4.46-7.3a9.55,9.55,0,0,0,1-4.6A6.33,6.33,0,0,0,29.19,9.78Z" transform="translate(3.34)"/><g class="cls-3"><path class="cls-4" d="M31.62,21.18a7.38,7.38,0,0,0-6.16-3.55.49.49,0,0,0-.77-.23c-.1.09-.19.19-.29.27a6.46,6.46,0,0,0-.75.11.73.73,0,0,0-.43,1.14c-.45.54-.87,1.12-1.3,1.68a8.19,8.19,0,0,1-3.31,2.72c-2.82,1.21-6.16,1-9.15.82a48.34,48.34,0,0,1-5.37-.68,19.45,19.45,0,0,0-4.46-.75,3,3,0,0,0-2.84,2.1,4.13,4.13,0,0,0,1,3.74,12.79,12.79,0,0,0,3.5,2.65A22.91,22.91,0,0,0,5.3,33a30.3,30.3,0,0,0,8.85,1.54,40.15,40.15,0,0,0,9-.7,13,13,0,0,0,7.72-4.06A7.52,7.52,0,0,0,31.62,21.18Z" transform="translate(3.34)"/></g><path class="cls-5" d="M50.29,24.74c-.48-.45-1.1-1-1.7-1.45a24.92,24.92,0,0,0-4.69-3.13,53.28,53.28,0,0,0-6.61-2.42l.61-.53a4.22,4.22,0,0,0,1.34-1.48,1.05,1.05,0,0,0-.65-1.37,3.49,3.49,0,0,0-1.93.28,22.21,22.21,0,0,0-2.32.84,19.85,19.85,0,0,0-2.16,1.09l-1.88-1c-1.22-.67-2.42-1.42-3.67-2a3.27,3.27,0,0,0-3.1.26c-1.1.56-4.84,3.65-4.27,8.14a6.14,6.14,0,0,0,1.5,2.9,3.87,3.87,0,0,0,3,1.14,33.59,33.59,0,0,1,7.58,1.49v0a29.27,29.27,0,0,1,3.19,1.08h0l.28.1.1,0,.12,0c1.3.48,4.81,1.69,6.26,1.49.74-.1.69-.46.14-.94a19.46,19.46,0,0,0-4.5-2.45,7.53,7.53,0,0,1,3.09.94A13.35,13.35,0,0,0,42.82,29a4.43,4.43,0,0,0,2.38.11c.47-.12.37-.46,0-.88a23.13,23.13,0,0,0-4.52-2.95,10.67,10.67,0,0,0-2.53-1.06,17.12,17.12,0,0,1,3.34.78c.83.36,3,2,4.72,2.78a3.74,3.74,0,0,0,1.76.45c.94-.1.7-.68,0-1.4h0A18.77,18.77,0,0,0,45.55,25c-2-1.38-3-2.11-3.81-2.63A14.33,14.33,0,0,0,39,21.25c.19,0,3.14.65,4.11,1s4,2.68,6.17,3.52a4.32,4.32,0,0,0,1,.29C51.6,26.2,51.2,25.58,50.29,24.74Z" transform="translate(3.34)"/><path class="cls-6" d="M55.9,21.79a3.25,3.25,0,0,0-2.39-1.21,4.64,4.64,0,0,0,1-3,2.63,2.63,0,0,0-2.29-2.3c-1.33-.25-3.87-.06-4.87,1.18a6.54,6.54,0,0,0-4-4.51,4.86,4.86,0,0,0-6.13,2.48,4.53,4.53,0,0,0-.34,1.77,1.85,1.85,0,0,0-1.39-.1,2,2,0,0,0-1.19,1.19,3.47,3.47,0,0,0-4.1-.48,4.85,4.85,0,0,0-1.58,6A5.06,5.06,0,0,0,29.3,24a3.31,3.31,0,0,0-3.13,2.42c-.67,2.43,1.59,4.48,3.79,4.9a13.29,13.29,0,0,0,5.17-.4l.1,0a.34.34,0,0,0,.07.15c1.37,1.67,3.5,3.52,5.8,2.43a2.38,2.38,0,0,0,1.39-2.19,2.8,2.8,0,0,0-.07-.59,12.17,12.17,0,0,0,3.12.92,5.4,5.4,0,0,0,3.78-.6,2.64,2.64,0,0,0,1.15-2.76,2.21,2.21,0,0,0-.12-.42,6.33,6.33,0,0,0,2.74.05,4.6,4.6,0,0,0,3.18-2.46A3.32,3.32,0,0,0,55.9,21.79Z" transform="translate(3.34)"/><path class="cls-1" d="M79.09,5.91A17.53,17.53,0,0,0,75.36,2C74,1,72.3-.09,70.54,0a5.39,5.39,0,0,0-3.91,2.63A24.1,24.1,0,0,1,63.3,7c-3,2.68-7.12,3.63-10.63,5.5C49.75,14.08,47,16.57,46.55,20a5.31,5.31,0,0,0,.16,2.21.37.37,0,0,0,.48.27,10.28,10.28,0,0,0,1.06,4C49.76,29.56,52.43,32,56,31.72a18.16,18.16,0,0,0,5-1.44l6.24-2.41,6.11-2.36a26.19,26.19,0,0,0,5.19-2.45C84.72,19,82.66,11,79.09,5.91Z" transform="translate(3.34)"/><g class="cls-7"><path class="cls-4" d="M78.59,22.29a12,12,0,0,0-4,.77c-1.41.41-2.8.9-4.19,1.4-5.44,2-11.34,4.23-17.11,2.26a8.21,8.21,0,0,1-.78-1.17,5.22,5.22,0,0,1-1.83-.39,9.36,9.36,0,0,1-3.74-3.1,6.51,6.51,0,0,1-2.12-1.21,3,3,0,0,1-1.08-2c-.09.23-.18.46-.26.69a9.06,9.06,0,0,0-.09,5.38.31.31,0,0,0,0,.19,7.39,7.39,0,0,0,1.52,3.8,4.33,4.33,0,0,0,1.3.94,4.6,4.6,0,0,0,1.95,4.26c2.12,1.56,5,1.4,7.45,1.21a43.65,43.65,0,0,0,8.33-1.46,44.85,44.85,0,0,0,14.91-7.34c.82-.62,2-1.35,1.92-2.52S79.59,22.36,78.59,22.29Z" transform="translate(3.34)"/></g><path class="cls-8" d="M55.49,19.67a5.84,5.84,0,0,0-4.17-1.11c-.94.1-2.27.24-3.59.35h0c-.07,0-1.37.47-2.92,1.1a22.07,22.07,0,0,0-3.54-.31,22.54,22.54,0,0,0-2.46.14,3.49,3.49,0,0,0-1.88.5,1,1,0,0,0-.07,1.51,4.18,4.18,0,0,0,1.81.84l.77.25a53,53,0,0,0-5.13,4.82,25,25,0,0,0-3.09,4.71c-.35.69-.73,1.41-1,2-.51,1.13-.64,1.85.51,1.19a4.8,4.8,0,0,0,.81-.66c1.65-1.62,3.63-5.06,4.29-5.66s3.23-2.43,3.4-2.51a14.26,14.26,0,0,0-2.08,2.1c-.57.8-1.17,1.85-2.47,3.9a19.52,19.52,0,0,0-1.44,2.59h0c-.41,1-.41,1.59.5,1.32a3.72,3.72,0,0,0,1.44-1.11c1.3-1.42,2.63-3.75,3.25-4.4a16.52,16.52,0,0,1,2.78-2,10.55,10.55,0,0,0-1.92,2,23.89,23.89,0,0,0-3,4.49c-.2.55-.16.89.32.83a4.62,4.62,0,0,0,2.15-1,13.27,13.27,0,0,0,2.09-2.2,7.47,7.47,0,0,1,2.48-2.08,19.6,19.6,0,0,0-3.19,4c-.31.66-.22,1,.5.81,1.41-.38,4.16-2.87,5.17-3.82l.1-.08A.6.6,0,0,1,46,32l.21-.2h0a30.4,30.4,0,0,1,2.52-2.25,5.11,5.11,0,0,1,4.3-1.2C56.81,29.18,59.57,22.75,55.49,19.67Z" transform="translate(3.34)"/><circle class="cls-6" cx="53.54" cy="8.71" r="1.43"/><path class="cls-6" d="M46.5,8.05a.78.78,0,1,1-.77-.77A.77.77,0,0,1,46.5,8.05Z" transform="translate(3.34)"/><path class="cls-6" d="M26.28,32.75a1,1,0,1,1-1-1A1,1,0,0,1,26.28,32.75Z" transform="translate(3.34)"/><path class="cls-6" d="M20.69,31a.74.74,0,0,1-.74.74A.75.75,0,0,1,19.2,31a.76.76,0,0,1,.75-.75A.75.75,0,0,1,20.69,31Z" transform="translate(3.34)"/><path class="cls-6" d="M51.94,35.94a.87.87,0,1,1-.87-.86A.87.87,0,0,1,51.94,35.94Z" transform="translate(3.34)"/></g></g></g></svg>